{"asset":{"version":"2.0","generator":"Blockbench 5.0.7 glTF exporter"},"scenes":[{"nodes":[0,1,2,3,4,5,6,7,8,9,10,11,12,13,14,15,16,17,18,19,20],"name":"blockbench_export"}],"scene":0,"nodes":[{"translation":[0.004687500000000001,-0.004091676360912844,-0.004857570705410749],"name":"plane","mesh":0},{"rotation":[-0.03053851320982377,0,0,0.9995335908367129],"translation":[0.004687500000000001,-0.004091676360912844,-0.004857570705410749],"name":"cube","mesh":1},{"rotation":[-0.08715574274765911,0,0,0.9961946980917454],"translation":[0.004687500000000001,-0.004091676360912844,-0.004857570705410749],"name":"cube","mesh":2},{"rotation":[-0.21643961393810393,0,0,0.9762960071199331],"translation":[0.004687500000000001,-0.004091676360912844,-0.004857570705410749],"name":"cube","mesh":3},{"rotation":[0.22354059474107435,-0.06727808267647667,0.2802333823044518,0.9311135878808724],"translation":[0.004687500000000001,-0.004091676360912844,-0.004857570705410749],"name":"cube","mesh":4},{"translation":[0.004687500000000001,-0.004091676360912844,-0.004857570705410749],"name":"plane","mesh":5},{"translation":[0.004687500000000001,-0.004091676360912844,-0.004857570705410749],"name":"plane","mesh":6},{"translation":[0.004687500000000001,-0.004091676360912844,-0.004857570705410749],"name":"plane","mesh":7},{"translation":[0.004687500000000001,-0.004091676360912844,-0.004857570705410749],"name":"plane","mesh":8},{"translation":[0.004687500000000001,-0.004091676360912844,-0.004857570705410749],"name":"plane","mesh":9},{"translation":[0.004687500000000001,-0.004091676360912844,-0.004857570705410749],"name":"plane","mesh":10},{"translation":[0.004687500000000001,-0.004091676360912844,-0.004857570705410749],"name":"plane","mesh":11},{"translation":[0.004687500000000001,-0.004091676360912844,-0.004857570705410749],"name":"plane","mesh":12},{"translation":[0.004687500000000001,-0.004091676360912844,-0.004857570705410749],"name":"plane","mesh":13},{"translation":[0.004687500000000001,-0.004091676360912844,-0.004857570705410749],"name":"plane","mesh":14},{"translation":[0.004687500000000001,-0.004091676360912844,-0.004857570705410749],"name":"plane","mesh":15},{"translation":[0.004687500000000001,-0.004091676360912844,-0.004857570705410749],"name":"plane","mesh":16},{"translation":[0.004687500000000001,-0.004091676360912844,-0.004857570705410749],"name":"plane","mesh":17},{"translation":[0.004687500000000001,-0.004091676360912844,-0.004857570705410749],"name":"plane","mesh":18},{"translation":[0.004687500000000001,-0.004091676360912844,-0.004857570705410749],"name":"plane","mesh":19},{"translation":[0.004687500000000001,-0.004091676360912844,-0.004857570705410749],"name":"plane","mesh":20}],"bufferViews":[{"buffer":0,"byteOffset":0,"byteLength":1728,"target":34962,"byteStride":12},{"buffer":0,"byteOffset":1728,"byteLength":1728,"target":34962,"byteStride":12},{"buffer":0,"byteOffset":3456,"byteLength":1152,"target":34962,"byteStride":8},{"buffer":0,"byteOffset":4608,"byteLength":432,"target":34963},{"buffer":0,"byteOffset":5040,"byteLength":288,"target":34962,"byteStride":12},{"buffer":0,"byteOffset":5328,"byteLength":288,"target":34962,"byteStride":12},{"buffer":0,"byteOffset":5616,"byteLength":192,"target":34962,"byteStride":8},{"buffer":0,"byteOffset":5808,"byteLength":72,"target":34963},{"buffer":0,"byteOffset":5880,"byteLength":288,"target":34962,"byteStride":12},{"buffer":0,"byteOffset":6168,"byteLength":288,"target":34962,"byteStride":12},{"buffer":0,"byteOffset":6456,"byteLength":192,"target":34962,"byteStride":8},{"buffer":0,"byteOffset":6648,"byteLength":72,"target":34963},{"buffer":0,"byteOffset":6720,"byteLength":288,"target":34962,"byteStride":12},{"buffer":0,"byteOffset":7008,"byteLength":288,"target":34962,"byteStride":12},{"buffer":0,"byteOffset":7296,"byteLength":192,"target":34962,"byteStride":8},{"buffer":0,"byteOffset":7488,"byteLength":72,"target":34963},{"buffer":0,"byteOffset":7560,"byteLength":288,"target":34962,"byteStride":12},{"buffer":0,"byteOffset":7848,"byteLength":288,"target":34962,"byteStride":12},{"buffer":0,"byteOffset":8136,"byteLength":192,"target":34962,"byteStride":8},{"buffer":0,"byteOffset":8328,"byteLength":72,"target":34963},{"buffer":0,"byteOffset":8400,"byteLength":48,"target":34962,"byteStride":12},{"buffer":0,"byteOffset":8448,"byteLength":48,"target":34962,"byteStride":12},{"buffer":0,"byteOffset":8496,"byteLength":32,"target":34962,"byteStride":8},{"buffer":0,"byteOffset":8528,"byteLength":12,"target":34963},{"buffer":0,"byteOffset":8540,"byteLength":48,"target":34962,"byteStride":12},{"buffer":0,"byteOffset":8588,"byteLength":48,"target":34962,"byteStride":12},{"buffer":0,"byteOffset":8636,"byteLength":32,"target":34962,"byteStride":8},{"buffer":0,"byteOffset":8668,"byteLength":12,"target":34963},{"buffer":0,"byteOffset":8680,"byteLength":48,"target":34962,"byteStride":12},{"buffer":0,"byteOffset":8728,"byteLength":48,"target":34962,"byteStride":12},{"buffer":0,"byteOffset":8776,"byteLength":32,"target":34962,"byteStride":8},{"buffer":0,"byteOffset":8808,"byteLength":12,"target":34963},{"buffer":0,"byteOffset":8820,"byteLength":288,"target":34962,"byteStride":12},{"buffer":0,"byteOffset":9108,"byteLength":288,"target":34962,"byteStride":12},{"buffer":0,"byteOffset":9396,"byteLength":192,"target":34962,"byteStride":8},{"buffer":0,"byteOffset":9588,"byteLength":72,"target":34963},{"buffer":0,"byteOffset":9660,"byteLength":48,"target":34962,"byteStride":12},{"buffer":0,"byteOffset":9708,"byteLength":48,"target":34962,"byteStride":12},{"buffer":0,"byteOffset":9756,"byteLength":32,"target":34962,"byteStride":8},{"buffer":0,"byteOffset":9788,"byteLength":12,"target":34963},{"buffer":0,"byteOffset":9800,"byteLength":48,"target":34962,"byteStride":12},{"buffer":0,"byteOffset":9848,"byteLength":48,"target":34962,"byteStride":12},{"buffer":0,"byteOffset":9896,"byteLength":32,"target":34962,"byteStride":8},{"buffer":0,"byteOffset":9928,"byteLength":12,"target":34963},{"buffer":0,"byteOffset":9940,"byteLength":48,"target":34962,"byteStride":12},{"buffer":0,"byteOffset":9988,"byteLength":48,"target":34962,"byteStride":12},{"buffer":0,"byteOffset":10036,"byteLength":32,"target":34962,"byteStride":8},{"buffer":0,"byteOffset":10068,"byteLength":12,"target":34963},{"buffer":0,"byteOffset":10080,"byteLength":48,"target":34962,"byteStride":12},{"buffer":0,"byteOffset":10128,"byteLength":48,"target":34962,"byteStride":12},{"buffer":0,"byteOffset":10176,"byteLength":32,"target":34962,"byteStride":8},{"buffer":0,"byteOffset":10208,"byteLength":12,"target":34963},{"buffer":0,"byteOffset":10220,"byteLength":48,"target":34962,"byteStride":12},{"buffer":0,"byteOffset":10268,"byteLength":48,"target":34962,"byteStride":12},{"buffer":0,"byteOffset":10316,"byteLength":32,"target":34962,"byteStride":8},{"buffer":0,"byteOffset":10348,"byteLength":12,"target":34963},{"buffer":0,"byteOffset":10360,"byteLength":48,"target":34962,"byteStride":12},{"buffer":0,"byteOffset":10408,"byteLength":48,"target":34962,"byteStride":12},{"buffer":0,"byteOffset":10456,"byteLength":32,"target":34962,"byteStride":8},{"buffer":0,"byteOffset":10488,"byteLength":12,"target":34963},{"buffer":0,"byteOffset":10500,"byteLength":48,"target":34962,"byteStride":12},{"buffer":0,"byteOffset":10548,"byteLength":48,"target":34962,"byteStride":12},{"buffer":0,"byteOffset":10596,"byteLength":32,"target":34962,"byteStride":8},{"buffer":0,"byteOffset":10628,"byteLength":12,"target":34963},{"buffer":0,"byteOffset":10640,"byteLength":48,"target":34962,"byteStride":12},{"buffer":0,"byteOffset":10688,"byteLength":48,"target":34962,"byteStride":12},{"buffer":0,"byteOffset":10736,"byteLength":32,"target":34962,"byteStride":8},{"buffer":0,"byteOffset":10768,"byteLength":12,"target":34963},{"buffer":0,"byteOffset":10780,"byteLength":48,"target":34962,"byteStride":12},{"buffer":0,"byteOffset":10828,"byteLength":48,"target":34962,"byteStride":12},{"buffer":0,"byteOffset":10876,"byteLength":32,"target":34962,"byteStride":8},{"buffer":0,"byteOffset":10908,"byteLength":12,"target":34963},{"buffer":0,"byteOffset":10920,"byteLength":48,"target":34962,"byteStride":12},{"buffer":0,"byteOffset":10968,"byteLength":48,"target":34962,"byteStride":12},{"buffer":0,"byteOffset":11016,"byteLength":32,"target":34962,"byteStride":8},{"buffer":0,"byteOffset":11048,"byteLength":12,"target":34963},{"buffer":0,"byteOffset":11060,"byteLength":48,"target":34962,"byteStride":12},{"buffer":0,"byteOffset":11108,"byteLength":48,"target":34962,"byteStride":12},{"buffer":0,"byteOffset":11156,"byteLength":32,"target":34962,"byteStride":8},{"buffer":0,"byteOffset":11188,"byteLength":12,"target":34963},{"buffer":0,"byteOffset":11200,"byteLength":288,"target":34962,"byteStride":12},{"buffer":0,"byteOffset":11488,"byteLength":288,"target":34962,"byteStride":12},{"buffer":0,"byteOffset":11776,"byteLength":192,"target":34962,"byteStride":8},{"buffer":0,"byteOffset":11968,"byteLength":72,"target":34963}],"buffers":[{"byteLength":12040,"uri":"data:application/octet-stream;base64,"}],"accessors":[{"bufferView":0,"componentType":5126,"count":144,"max":[0.061657875776290894,0.04674500972032547,0.059525907039642334],"min":[-0.04895979166030884,-0.011730441823601723,-0.05226651579141617],"type":"VEC3"},{"bufferView":1,"componentType":5126,"count":144,"max":[0.8841567039489746,-0.22925007343292236,0.7515670657157898],"min":[-0.9692404270172119,-0.9949710965156555,-0.8974559307098389],"type":"VEC3"},{"bufferView":2,"componentType":5126,"count":144,"max":[0.45694053173065186,0.4515625238418579],"min":[0,0],"type":"VEC2"},{"bufferView":3,"componentType":5123,"count":216,"max":[143],"min":[0],"type":"SCALAR"},{"bufferView":4,"componentType":5126,"count":24,"max":[0.0015625000232830644,0.06353727728128433,-0.00021579932945314795],"min":[-0.0015625000232830644,0.00728727737441659,-0.0033407993614673615],"type":"VEC3"},{"bufferView":5,"componentType":5126,"count":24,"max":[1,1,1],"min":[-1,-1,-1],"type":"VEC3"},{"bufferView":6,"componentType":5126,"count":24,"max":[0.4453125,0.4453125],"min":[0.1875,0.0625],"type":"VEC2"},{"bufferView":7,"componentType":5123,"count":36,"max":[23],"min":[0],"type":"SCALAR"},{"bufferView":8,"componentType":5126,"count":24,"max":[0.0015625000232830644,0.11940328031778336,0.006978211924433708],"min":[-0.0015625000232830644,0.06315328180789948,0.0038532118778675795],"type":"VEC3"},{"bufferView":9,"componentType":5126,"count":24,"max":[1,1,1],"min":[-1,-1,-1],"type":"VEC3"},{"bufferView":10,"componentType":5126,"count":24,"max":[0.4453125,0.4765625],"min":[0.125,0.25],"type":"VEC2"},{"bufferView":11,"componentType":5123,"count":36,"max":[23],"min":[0],"type":"SCALAR"},{"bufferView":12,"componentType":5126,"count":24,"max":[0.0015625000232830644,0.15415361523628235,0.03764427825808525],"min":[-0.0015625000232830644,0.11352861672639847,0.03451927751302719],"type":"VEC3"},{"bufferView":13,"componentType":5126,"count":24,"max":[1,1,1],"min":[-1,-1,-1],"type":"VEC3"},{"bufferView":14,"componentType":5126,"count":24,"max":[0.5078125,0.5078125],"min":[0,0],"type":"VEC2"},{"bufferView":15,"componentType":5123,"count":36,"max":[23],"min":[0],"type":"SCALAR"},{"bufferView":16,"componentType":5126,"count":24,"max":[0.07525651156902313,0.10970928519964218,-0.0980987623333931],"min":[0.059631507843732834,0.09408428519964218,-0.1137237623333931],"type":"VEC3"},{"bufferView":17,"componentType":5126,"count":24,"max":[1,1,1],"min":[-1,-1,-1],"type":"VEC3"},{"bufferView":18,"componentType":5126,"count":24,"max":[0.5078125,0.5078125],"min":[0.0625,0.0625],"type":"VEC2"},{"bufferView":19,"componentType":5123,"count":36,"max":[23],"min":[0],"type":"SCALAR"},{"bufferView":20,"componentType":5126,"count":4,"max":[0.03548905625939369,0.17185494303703308,-0.025534305721521378],"min":[0.005570957902818918,0.13975544273853302,-0.05023469030857086],"type":"VEC3"},{"bufferView":21,"componentType":5126,"count":4,"max":[-0.34472382068634033,0.4557415843009949,-0.8206492066383362],"min":[-0.34472382068634033,0.4557415843009949,-0.8206492066383362],"type":"VEC3"},{"bufferView":22,"componentType":5126,"count":4,"max":[0.03125,0.03125],"min":[0,0],"type":"VEC2"},{"bufferView":23,"componentType":5123,"count":6,"max":[3],"min":[0],"type":"SCALAR"},{"bufferView":24,"componentType":5126,"count":4,"max":[-0.005838941782712936,0.17142866551876068,-0.025049535557627678],"min":[-0.035890333354473114,0.13980945944786072,-0.048709481954574585],"type":"VEC3"},{"bufferView":25,"componentType":5126,"count":4,"max":[0.3003019392490387,0.47134700417518616,-0.8292470574378967],"min":[0.3003019392490387,0.47134700417518616,-0.8292470574378967],"type":"VEC3"},{"bufferView":26,"componentType":5126,"count":4,"max":[0.03125,0.09375],"min":[0,0.0625],"type":"VEC2"},{"bufferView":27,"componentType":5123,"count":6,"max":[3],"min":[0],"type":"SCALAR"},{"bufferView":28,"componentType":5126,"count":4,"max":[0.008579280227422714,0.19154590368270874,-0.025636380538344383],"min":[-0.03448159992694855,0.1487252563238144,-0.03473707288503647],"type":"VEC3"},{"bufferView":29,"componentType":5126,"count":4,"max":[0.17844365537166595,0.1803339421749115,-0.9672836065292358],"min":[0.17844365537166595,0.1803339421749115,-0.9672836065292358],"type":"VEC3"},{"bufferView":30,"componentType":5126,"count":4,"max":[0.09375,0.09375],"min":[0.0625,0.0625],"type":"VEC2"},{"bufferView":31,"componentType":5123,"count":6,"max":[3],"min":[0],"type":"SCALAR"},{"bufferView":32,"componentType":5126,"count":24,"max":[0.02801677957177162,0.17336179316043854,-0.015269845724105835],"min":[-0.02288726344704628,0.12678146362304688,-0.038249075412750244],"type":"VEC3"},{"bufferView":33,"componentType":5126,"count":24,"max":[0.3767123818397522,-0.05868945270776749,0.9936839938163757],"min":[-0.4456852078437805,-0.7422451972961426,0.6248061656951904],"type":"VEC3"},{"bufferView":34,"componentType":5126,"count":24,"max":[0.390625,0.45374685525894165],"min":[0.0016781250014901161,0.1875],"type":"VEC2"},{"bufferView":35,"componentType":5123,"count":36,"max":[23],"min":[0],"type":"SCALAR"},{"bufferView":36,"componentType":5126,"count":4,"max":[0.015625,0.1519068032503128,-0.03562992811203003],"min":[-0.015625,0.11479401588439941,-0.052153605967760086],"type":"VEC3"},{"bufferView":37,"componentType":5126,"count":4,"max":[6.832141812169177e-16,0.4067366421222687,-0.9135454297065735],"min":[6.832141812169177e-16,0.4067366421222687,-0.9135454297065735],"type":"VEC3"},{"bufferView":38,"componentType":5126,"count":4,"max":[0.15625,0.09375],"min":[0.125,0.0625],"type":"VEC2"},{"bufferView":39,"componentType":5123,"count":6,"max":[3],"min":[0],"type":"SCALAR"},{"bufferView":40,"componentType":5126,"count":4,"max":[0.015625,0.1890195906162262,-0.01910625398159027],"min":[-0.015625,0.1519068032503128,-0.03562992811203003],"type":"VEC3"},{"bufferView":41,"componentType":5126,"count":4,"max":[0,0.4067366421222687,-0.9135454297065735],"min":[0,0.4067366421222687,-0.9135454297065735],"type":"VEC3"},{"bufferView":42,"componentType":5126,"count":4,"max":[0.15625,0.15625],"min":[0.125,0.125],"type":"VEC2"},{"bufferView":43,"componentType":5123,"count":6,"max":[3],"min":[0],"type":"SCALAR"},{"bufferView":44,"componentType":5126,"count":4,"max":[0.039774756878614426,0.1882428526878357,-0.019458329305052757],"min":[-0.011048543266952038,0.1418134570121765,-0.04013002663850784],"type":"VEC3"},{"bufferView":45,"componentType":5126,"count":4,"max":[-3.4160709060845884e-16,0.4067366421222687,-0.9135454297065735],"min":[-3.4160709060845884e-16,0.4067366421222687,-0.9135454297065735],"type":"VEC3"},{"bufferView":46,"componentType":5126,"count":4,"max":[0.09375,0.21875],"min":[0.0625,0.1875],"type":"VEC2"},{"bufferView":47,"componentType":5123,"count":6,"max":[3],"min":[0],"type":"SCALAR"},{"bufferView":48,"componentType":5126,"count":4,"max":[0.039774756878614426,0.1620001494884491,-0.031131668016314507],"min":[-0.011048543266952038,0.11557075381278992,-0.05180336534976959],"type":"VEC3"},{"bufferView":49,"componentType":5126,"count":4,"max":[-1.6226337002425142e-15,0.4067366421222687,-0.9135454297065735],"min":[-1.6226337002425142e-15,0.4067366421222687,-0.9135454297065735],"type":"VEC3"},{"bufferView":50,"componentType":5126,"count":4,"max":[0.21875,0.09375],"min":[0.1875,0.0625],"type":"VEC2"},{"bufferView":51,"componentType":5123,"count":6,"max":[3],"min":[0],"type":"SCALAR"},{"bufferView":52,"componentType":5126,"count":4,"max":[0.011048543266952038,0.1620001494884491,-0.031142331659793854],"min":[-0.039774756878614426,0.11557075381278992,-0.05181403085589409],"type":"VEC3"},{"bufferView":53,"componentType":5126,"count":4,"max":[-1.74006105409393e-15,0.4067366421222687,-0.9135454297065735],"min":[-1.74006105409393e-15,0.4067366421222687,-0.9135454297065735],"type":"VEC3"},{"bufferView":54,"componentType":5126,"count":4,"max":[0.15625,0.21875],"min":[0.125,0.1875],"type":"VEC2"},{"bufferView":55,"componentType":5123,"count":6,"max":[3],"min":[0],"type":"SCALAR"},{"bufferView":56,"componentType":5126,"count":4,"max":[0.011048543266952038,0.1882428526878357,-0.01944766566157341],"min":[-0.039774756878614426,0.1418134570121765,-0.040119364857673645],"type":"VEC3"},{"bufferView":57,"componentType":5126,"count":4,"max":[-3.4160709060845884e-16,0.4067366421222687,-0.9135454297065735],"min":[-3.4160709060845884e-16,0.4067366421222687,-0.9135454297065735],"type":"VEC3"},{"bufferView":58,"componentType":5126,"count":4,"max":[0.21875,0.15625],"min":[0.1875,0.125],"type":"VEC2"},{"bufferView":59,"componentType":5123,"count":6,"max":[3],"min":[0],"type":"SCALAR"},{"bufferView":60,"componentType":5126,"count":4,"max":[0.04062500223517418,0.16618095338344574,-0.02927466854453087],"min":[-4.032744971294022e-10,0.13763265311717987,-0.04198518767952919],"type":"VEC3"},{"bufferView":61,"componentType":5126,"count":4,"max":[-1.1851286627799165e-16,0.4067366421222687,-0.9135454297065735],"min":[-1.1851286627799165e-16,0.4067366421222687,-0.9135454297065735],"type":"VEC3"},{"bufferView":62,"componentType":5126,"count":4,"max":[0.03125,0.21875],"min":[0,0.1875],"type":"VEC2"},{"bufferView":63,"componentType":5123,"count":6,"max":[3],"min":[0],"type":"SCALAR"},{"bufferView":64,"componentType":5126,"count":4,"max":[9.599853134645286e-10,0.16618095338344574,-0.02927466854453087],"min":[-0.04062500223517418,0.13763265311717987,-0.04198518767952919],"type":"VEC3"},{"bufferView":65,"componentType":5126,"count":4,"max":[-7.4618562021246115e-19,0.4067366421222687,-0.9135454297065735],"min":[-7.4618562021246115e-19,0.4067366421222687,-0.9135454297065735],"type":"VEC3"},{"bufferView":66,"componentType":5126,"count":4,"max":[0.21875,0.03125],"min":[0.1875,0],"type":"VEC2"},{"bufferView":67,"componentType":5123,"count":6,"max":[3],"min":[0],"type":"SCALAR"},{"bufferView":68,"componentType":5126,"count":4,"max":[0.03330373018980026,0.15775492787361145,-0.03145046532154083],"min":[-0.009067892096936703,0.1235041618347168,-0.05828259885311127],"type":"VEC3"},{"bufferView":69,"componentType":5126,"count":4,"max":[-0.22368411719799042,0.6319278478622437,-0.7420462369918823],"min":[-0.22368411719799042,0.6319278478622437,-0.7420462369918823],"type":"VEC3"},{"bufferView":70,"componentType":5126,"count":4,"max":[0.09375,0.03125],"min":[0.0625,0],"type":"VEC2"},{"bufferView":71,"componentType":5123,"count":6,"max":[3],"min":[0],"type":"SCALAR"},{"bufferView":72,"componentType":5126,"count":4,"max":[0.030505022034049034,0.19281506538391113,-0.02684827521443367],"min":[-0.010381762869656086,0.15107282996177673,-0.03648795560002327],"type":"VEC3"},{"bufferView":73,"componentType":5126,"count":4,"max":[-0.2619644105434418,0.10670352727174759,-0.959160566329956],"min":[-0.2619644105434418,0.10670352727174759,-0.959160566329956],"type":"VEC3"},{"bufferView":74,"componentType":5126,"count":4,"max":[0.15625,0.03125],"min":[0.125,0],"type":"VEC2"},{"bufferView":75,"componentType":5123,"count":6,"max":[3],"min":[0],"type":"SCALAR"},{"bufferView":76,"componentType":5126,"count":4,"max":[0.009575478732585907,0.15588673949241638,-0.02983853965997696],"min":[-0.033613573759794235,0.12187446653842926,-0.056633830070495605],"type":"VEC3"},{"bufferView":77,"componentType":5126,"count":4,"max":[0.06984296441078186,0.6284778714179993,-0.7746854424476624],"min":[0.06984296441078186,0.6284778714179993,-0.7746854424476624],"type":"VEC3"},{"bufferView":78,"componentType":5126,"count":4,"max":[0.03125,0.15625],"min":[0,0.125],"type":"VEC2"},{"bufferView":79,"componentType":5123,"count":6,"max":[3],"min":[0],"type":"SCALAR"},{"bufferView":80,"componentType":5126,"count":24,"max":[0.03210635110735893,0.1884775161743164,-0.03018595464527607],"min":[-0.03355443477630615,0.13306130468845367,-0.05808993801474571],"type":"VEC3"},{"bufferView":81,"componentType":5126,"count":24,"max":[0.3511022925376892,0.7381929755210876,-0.6739290952682495],"min":[-0.4111143946647644,0.0760040283203125,-0.9963377714157104],"type":"VEC3"},{"bufferView":82,"componentType":5126,"count":24,"max":[0.32993438839912415,0.3616906404495239],"min":[0.0625,0.125],"type":"VEC2"},{"bufferView":83,"componentType":5123,"count":36,"max":[23],"min":[0],"type":"SCALAR"}],"materials":[{"pbrMetallicRoughness":{"metallicFactor":0,"roughnessFactor":1,"baseColorTexture":{"index":0}},"alphaMode":"MASK","alphaCutoff":0.05,"doubleSided":true}],"textures":[{"sampler":0,"source":0,"name":"Black Dahlia"}],"samplers":[{"magFilter":9728,"minFilter":9728,"wrapS":33071,"wrapT":33071}],"images":[{"mimeType":"image/png","uri":"data:image/png;base64,"}],"meshes":[{"primitives":[{"mode":4,"attributes":{"POSITION":0,"NORMAL":1,"TEXCOORD_0":2},"indices":3,"material":0}]},{"primitives":[{"mode":4,"attributes":{"POSITION":4,"NORMAL":5,"TEXCOORD_0":6},"indices":7,"material":0}]},{"primitives":[{"mode":4,"attributes":{"POSITION":8,"NORMAL":9,"TEXCOORD_0":10},"indices":11,"material":0}]},{"primitives":[{"mode":4,"attributes":{"POSITION":12,"NORMAL":13,"TEXCOORD_0":14},"indices":15,"material":0}]},{"primitives":[{"mode":4,"attributes":{"POSITION":16,"NORMAL":17,"TEXCOORD_0":18},"indices":19,"material":0}]},{"primitives":[{"mode":4,"attributes":{"POSITION":20,"NORMAL":21,"TEXCOORD_0":22},"indices":23,"material":0}]},{"primitives":[{"mode":4,"attributes":{"POSITION":24,"NORMAL":25,"TEXCOORD_0":26},"indices":27,"material":0}]},{"primitives":[{"mode":4,"attributes":{"POSITION":28,"NORMAL":29,"TEXCOORD_0":30},"indices":31,"material":0}]},{"primitives":[{"mode":4,"attributes":{"POSITION":32,"NORMAL":33,"TEXCOORD_0":34},"indices":35,"material":0}]},{"primitives":[{"mode":4,"attributes":{"POSITION":36,"NORMAL":37,"TEXCOORD_0":38},"indices":39,"material":0}]},{"primitives":[{"mode":4,"attributes":{"POSITION":40,"NORMAL":41,"TEXCOORD_0":42},"indices":43,"material":0}]},{"primitives":[{"mode":4,"attributes":{"POSITION":44,"NORMAL":45,"TEXCOORD_0":46},"indices":47,"material":0}]},{"primitives":[{"mode":4,"attributes":{"POSITION":48,"NORMAL":49,"TEXCOORD_0":50},"indices":51,"material":0}]},{"primitives":[{"mode":4,"attributes":{"POSITION":52,"NORMAL":53,"TEXCOORD_0":54},"indices":55,"material":0}]},{"primitives":[{"mode":4,"attributes":{"POSITION":56,"NORMAL":57,"TEXCOORD_0":58},"indices":59,"material":0}]},{"primitives":[{"mode":4,"attributes":{"POSITION":60,"NORMAL":61,"TEXCOORD_0":62},"indices":63,"material":0}]},{"primitives":[{"mode":4,"attributes":{"POSITION":64,"NORMAL":65,"TEXCOORD_0":66},"indices":67,"material":0}]},{"primitives":[{"mode":4,"attributes":{"POSITION":68,"NORMAL":69,"TEXCOORD_0":70},"indices":71,"material":0}]},{"primitives":[{"mode":4,"attributes":{"POSITION":72,"NORMAL":73,"TEXCOORD_0":74},"indices":75,"material":0}]},{"primitives":[{"mode":4,"attributes":{"POSITION":76,"NORMAL":77,"TEXCOORD_0":78},"indices":79,"material":0}]},{"primitives":[{"mode":4,"attributes":{"POSITION":80,"NORMAL":81,"TEXCOORD_0":82},"indices":83,"material":0}]}]}