{"asset":{"version":"2.0","generator":"Blockbench 5.0.7 glTF exporter"},"scenes":[{"nodes":[0,1,2,3,4,5,6,7,8,9,10,11,12,13,14],"name":"blockbench_export"}],"scene":0,"nodes":[{"translation":[-0.05625,0,0.4375],"name":"cube","mesh":0},{"translation":[-0.05625,0,0.4375],"name":"cube","mesh":1},{"translation":[-0.05625,0,0.4375],"name":"cube","mesh":2},{"rotation":[-6.12323399573676e-17,-1,-6.12323399573676e-17,9.471590178833367e-16],"translation":[-0.05625,0,0.4375],"name":"cube","mesh":3},{"translation":[-0.05625,0,0.4375],"name":"cube","mesh":4},{"rotation":[-6.12323399573676e-17,-1,-6.12323399573676e-17,9.471590178833367e-16],"translation":[-0.05625,0,0.4375],"name":"cube","mesh":5},{"translation":[-0.05625,0,0.4375],"name":"cube","mesh":6},{"translation":[-0.05625,0,0.4375],"name":"cube","mesh":7},{"translation":[-0.05625,0,0.4375],"name":"cube","mesh":8},{"translation":[-0.05625,0,0.4375],"name":"cube","mesh":9},{"rotation":[-0.7071067811865486,0,0,0.7071067811865466],"translation":[-0.05625,0,0.4375],"name":"plane","mesh":10},{"translation":[-0.05625,0,0.4375],"name":"cube","mesh":11},{"translation":[-0.05625,0,0.4375],"name":"cube","mesh":12},{"translation":[-0.05625,0,0.4375],"name":"cube","mesh":13},{"translation":[-0.05625,0,0.4375],"name":"cube","mesh":14}],"bufferViews":[{"buffer":0,"byteOffset":0,"byteLength":1056,"target":34962,"byteStride":12},{"buffer":0,"byteOffset":1056,"byteLength":1056,"target":34962,"byteStride":12},{"buffer":0,"byteOffset":2112,"byteLength":704,"target":34962,"byteStride":8},{"buffer":0,"byteOffset":2816,"byteLength":264,"target":34963},{"buffer":0,"byteOffset":3080,"byteLength":288,"target":34962,"byteStride":12},{"buffer":0,"byteOffset":3368,"byteLength":288,"target":34962,"byteStride":12},{"buffer":0,"byteOffset":3656,"byteLength":192,"target":34962,"byteStride":8},{"buffer":0,"byteOffset":3848,"byteLength":72,"target":34963},{"buffer":0,"byteOffset":3920,"byteLength":1872,"target":34962,"byteStride":12},{"buffer":0,"byteOffset":5792,"byteLength":1872,"target":34962,"byteStride":12},{"buffer":0,"byteOffset":7664,"byteLength":1248,"target":34962,"byteStride":8},{"buffer":0,"byteOffset":8912,"byteLength":468,"target":34963},{"buffer":0,"byteOffset":9380,"byteLength":1872,"target":34962,"byteStride":12},{"buffer":0,"byteOffset":11252,"byteLength":1872,"target":34962,"byteStride":12},{"buffer":0,"byteOffset":13124,"byteLength":1248,"target":34962,"byteStride":8},{"buffer":0,"byteOffset":14372,"byteLength":468,"target":34963},{"buffer":0,"byteOffset":14840,"byteLength":1872,"target":34962,"byteStride":12},{"buffer":0,"byteOffset":16712,"byteLength":1872,"target":34962,"byteStride":12},{"buffer":0,"byteOffset":18584,"byteLength":1248,"target":34962,"byteStride":8},{"buffer":0,"byteOffset":19832,"byteLength":468,"target":34963},{"buffer":0,"byteOffset":20300,"byteLength":1872,"target":34962,"byteStride":12},{"buffer":0,"byteOffset":22172,"byteLength":1872,"target":34962,"byteStride":12},{"buffer":0,"byteOffset":24044,"byteLength":1248,"target":34962,"byteStride":8},{"buffer":0,"byteOffset":25292,"byteLength":468,"target":34963},{"buffer":0,"byteOffset":25760,"byteLength":288,"target":34962,"byteStride":12},{"buffer":0,"byteOffset":26048,"byteLength":288,"target":34962,"byteStride":12},{"buffer":0,"byteOffset":26336,"byteLength":192,"target":34962,"byteStride":8},{"buffer":0,"byteOffset":26528,"byteLength":72,"target":34963},{"buffer":0,"byteOffset":26600,"byteLength":288,"target":34962,"byteStride":12},{"buffer":0,"byteOffset":26888,"byteLength":288,"target":34962,"byteStride":12},{"buffer":0,"byteOffset":27176,"byteLength":192,"target":34962,"byteStride":8},{"buffer":0,"byteOffset":27368,"byteLength":72,"target":34963},{"buffer":0,"byteOffset":27440,"byteLength":288,"target":34962,"byteStride":12},{"buffer":0,"byteOffset":27728,"byteLength":288,"target":34962,"byteStride":12},{"buffer":0,"byteOffset":28016,"byteLength":192,"target":34962,"byteStride":8},{"buffer":0,"byteOffset":28208,"byteLength":72,"target":34963},{"buffer":0,"byteOffset":28280,"byteLength":288,"target":34962,"byteStride":12},{"buffer":0,"byteOffset":28568,"byteLength":288,"target":34962,"byteStride":12},{"buffer":0,"byteOffset":28856,"byteLength":192,"target":34962,"byteStride":8},{"buffer":0,"byteOffset":29048,"byteLength":72,"target":34963},{"buffer":0,"byteOffset":29120,"byteLength":48,"target":34962,"byteStride":12},{"buffer":0,"byteOffset":29168,"byteLength":48,"target":34962,"byteStride":12},{"buffer":0,"byteOffset":29216,"byteLength":32,"target":34962,"byteStride":8},{"buffer":0,"byteOffset":29248,"byteLength":12,"target":34963},{"buffer":0,"byteOffset":29260,"byteLength":288,"target":34962,"byteStride":12},{"buffer":0,"byteOffset":29548,"byteLength":288,"target":34962,"byteStride":12},{"buffer":0,"byteOffset":29836,"byteLength":192,"target":34962,"byteStride":8},{"buffer":0,"byteOffset":30028,"byteLength":72,"target":34963},{"buffer":0,"byteOffset":30100,"byteLength":288,"target":34962,"byteStride":12},{"buffer":0,"byteOffset":30388,"byteLength":288,"target":34962,"byteStride":12},{"buffer":0,"byteOffset":30676,"byteLength":192,"target":34962,"byteStride":8},{"buffer":0,"byteOffset":30868,"byteLength":72,"target":34963},{"buffer":0,"byteOffset":30940,"byteLength":288,"target":34962,"byteStride":12},{"buffer":0,"byteOffset":31228,"byteLength":288,"target":34962,"byteStride":12},{"buffer":0,"byteOffset":31516,"byteLength":192,"target":34962,"byteStride":8},{"buffer":0,"byteOffset":31708,"byteLength":72,"target":34963},{"buffer":0,"byteOffset":31780,"byteLength":288,"target":34962,"byteStride":12},{"buffer":0,"byteOffset":32068,"byteLength":288,"target":34962,"byteStride":12},{"buffer":0,"byteOffset":32356,"byteLength":192,"target":34962,"byteStride":8},{"buffer":0,"byteOffset":32548,"byteLength":72,"target":34963}],"buffers":[{"byteLength":32620,"uri":"data:application/octet-stream;base64,"}],"accessors":[{"bufferView":0,"componentType":5126,"count":88,"max":[0.3687500059604645,0.984375,0.328125],"min":[-0.3812499940395355,0.296875,-0.5],"type":"VEC3"},{"bufferView":1,"componentType":5126,"count":88,"max":[1,1,1],"min":[-1,-1,-1],"type":"VEC3"},{"bufferView":2,"componentType":5126,"count":88,"max":[0.4921875,0.4921875],"min":[0,0],"type":"VEC2"},{"bufferView":3,"componentType":5123,"count":132,"max":[87],"min":[0],"type":"SCALAR"},{"bufferView":4,"componentType":5126,"count":24,"max":[-0.20937499403953552,0.296875,-0.46875],"min":[-0.3656249940395355,0.125,-0.484375],"type":"VEC3"},{"bufferView":5,"componentType":5126,"count":24,"max":[1,1,1],"min":[-1,-1,-1],"type":"VEC3"},{"bufferView":6,"componentType":5126,"count":24,"max":[0.51953125,0.521484375],"min":[0.0859375,0.359375],"type":"VEC2"},{"bufferView":7,"componentType":5123,"count":36,"max":[23],"min":[0],"type":"SCALAR"},{"bufferView":8,"componentType":5126,"count":156,"max":[-0.17806249856948853,0.26875001192092896,-0.1249374970793724],"min":[-0.4125624895095825,0.0031250000465661287,-0.390687495470047],"type":"VEC3"},{"bufferView":9,"componentType":5126,"count":156,"max":[1,1,1],"min":[-1,-1,-1],"type":"VEC3"},{"bufferView":10,"componentType":5126,"count":156,"max":[0.5078125,0.5234375],"min":[0,0],"type":"VEC2"},{"bufferView":11,"componentType":5123,"count":234,"max":[155],"min":[0],"type":"SCALAR"},{"bufferView":12,"componentType":5126,"count":156,"max":[-0.1655624955892563,0.26875001192092896,0.406312495470047],"min":[-0.4000625014305115,0.0031250000465661287,0.140562504529953],"type":"VEC3"},{"bufferView":13,"componentType":5126,"count":156,"max":[1,1,1],"min":[-1,-1,-1],"type":"VEC3"},{"bufferView":14,"componentType":5126,"count":156,"max":[0.5078125,0.5234375],"min":[0,0],"type":"VEC2"},{"bufferView":15,"componentType":5123,"count":234,"max":[155],"min":[0],"type":"SCALAR"},{"bufferView":16,"componentType":5126,"count":156,"max":[-0.17806249856948853,0.26875001192092896,0.250062495470047],"min":[-0.4125624895095825,0.0031250000465661287,-0.015687499195337296],"type":"VEC3"},{"bufferView":17,"componentType":5126,"count":156,"max":[1,1,1],"min":[-1,-1,-1],"type":"VEC3"},{"bufferView":18,"componentType":5126,"count":156,"max":[0.5234375,0.5234375],"min":[0,0],"type":"VEC2"},{"bufferView":19,"componentType":5123,"count":234,"max":[155],"min":[0],"type":"SCALAR"},{"bufferView":20,"componentType":5126,"count":156,"max":[-0.1655624955892563,0.26875001192092896,0.031312499195337296],"min":[-0.4000625014305115,0.0031250000465661287,-0.234437495470047],"type":"VEC3"},{"bufferView":21,"componentType":5126,"count":156,"max":[1,1,1],"min":[-1,-1,-1],"type":"VEC3"},{"bufferView":22,"componentType":5126,"count":156,"max":[0.5078125,0.5234375],"min":[0,0.09375],"type":"VEC2"},{"bufferView":23,"componentType":5123,"count":234,"max":[155],"min":[0],"type":"SCALAR"},{"bufferView":24,"componentType":5126,"count":24,"max":[0.3531250059604645,0.296875,-0.46875],"min":[0.19687500596046448,0.125,-0.484375],"type":"VEC3"},{"bufferView":25,"componentType":5126,"count":24,"max":[1,1,1],"min":[-1,-1,-1],"type":"VEC3"},{"bufferView":26,"componentType":5126,"count":24,"max":[0.51953125,0.521484375],"min":[0.1171875,0.140625],"type":"VEC2"},{"bufferView":27,"componentType":5123,"count":36,"max":[23],"min":[0],"type":"SCALAR"},{"bufferView":28,"componentType":5126,"count":24,"max":[0.15000000596046448,0.296875,-0.28125],"min":[-0.16249999403953552,0.15625,-0.484375],"type":"VEC3"},{"bufferView":29,"componentType":5126,"count":24,"max":[1,1,1],"min":[-1,-1,-1],"type":"VEC3"},{"bufferView":30,"componentType":5126,"count":24,"max":[0.486328125,0.486328125],"min":[0.015625,0.0234375],"type":"VEC2"},{"bufferView":31,"componentType":5123,"count":36,"max":[23],"min":[0],"type":"SCALAR"},{"bufferView":32,"componentType":5126,"count":24,"max":[0.16562500596046448,0.25,0.34375],"min":[-0.17812499403953552,0.125,-0.375],"type":"VEC3"},{"bufferView":33,"componentType":5126,"count":24,"max":[1,1,1],"min":[-1,-1,-1],"type":"VEC3"},{"bufferView":34,"componentType":5126,"count":24,"max":[0.44140625,0.400390625],"min":[0.0859375,0],"type":"VEC2"},{"bufferView":35,"componentType":5123,"count":36,"max":[23],"min":[0],"type":"SCALAR"},{"bufferView":36,"componentType":5126,"count":24,"max":[0.02500000037252903,0.328125,0.328125],"min":[-0.03750000149011612,0.25,-0.375],"type":"VEC3"},{"bufferView":37,"componentType":5126,"count":24,"max":[1,1,1],"min":[-1,-1,-1],"type":"VEC3"},{"bufferView":38,"componentType":5126,"count":24,"max":[0.416015625,0.447265625],"min":[0.203125,0.046875],"type":"VEC2"},{"bufferView":39,"componentType":5123,"count":36,"max":[23],"min":[0],"type":"SCALAR"},{"bufferView":40,"componentType":5126,"count":4,"max":[0.48750001192092896,-0.3187499940395355,1.0750000476837158],"min":[-0.512499988079071,-0.3187499940395355,-0.012500000186264515],"type":"VEC3"},{"bufferView":41,"componentType":5126,"count":4,"max":[0,1,0],"min":[0,1,0],"type":"VEC3"},{"bufferView":42,"componentType":5126,"count":4,"max":[0.25,0.265625],"min":[0,0],"type":"VEC2"},{"bufferView":43,"componentType":5123,"count":6,"max":[3],"min":[0],"type":"SCALAR"},{"bufferView":44,"componentType":5126,"count":24,"max":[0.515625,1.203125,0.40625],"min":[-0.53125,1.078125,0.28125],"type":"VEC3"},{"bufferView":45,"componentType":5126,"count":24,"max":[1,1,1],"min":[-1,-1,-1],"type":"VEC3"},{"bufferView":46,"componentType":5126,"count":24,"max":[0.57421875,0.375],"min":[0.265625,0],"type":"VEC2"},{"bufferView":47,"componentType":5123,"count":36,"max":[23],"min":[0],"type":"SCALAR"},{"bufferView":48,"componentType":5126,"count":24,"max":[0.5156875252723694,1.2031874656677246,0.406312495470047],"min":[0.484312504529953,-0.015687499195337296,0.281187504529953],"type":"VEC3"},{"bufferView":49,"componentType":5126,"count":24,"max":[1,1,1],"min":[-1,-1,-1],"type":"VEC3"},{"bufferView":50,"componentType":5126,"count":24,"max":[0.3984375,0.5859375],"min":[0.046875,0.28125],"type":"VEC2"},{"bufferView":51,"componentType":5123,"count":36,"max":[23],"min":[0],"type":"SCALAR"},{"bufferView":52,"componentType":5126,"count":24,"max":[-0.5030624866485596,1.2031874656677246,0.406312495470047],"min":[-0.5344374775886536,-0.015687499195337296,0.281187504529953],"type":"VEC3"},{"bufferView":53,"componentType":5126,"count":24,"max":[1,1,1],"min":[-1,-1,-1],"type":"VEC3"},{"bufferView":54,"componentType":5126,"count":24,"max":[0.3359375,0.5859375],"min":[0,0],"type":"VEC2"},{"bufferView":55,"componentType":5123,"count":36,"max":[23],"min":[0],"type":"SCALAR"},{"bufferView":56,"componentType":5126,"count":24,"max":[0.5,1.140625,0.34375],"min":[-0.515625,1.015625,0.296875],"type":"VEC3"},{"bufferView":57,"componentType":5126,"count":24,"max":[1,1,1],"min":[-1,-1,-1],"type":"VEC3"},{"bufferView":58,"componentType":5126,"count":24,"max":[0.56640625,0.40625],"min":[0.265625,0.1875],"type":"VEC2"},{"bufferView":59,"componentType":5123,"count":36,"max":[23],"min":[0],"type":"SCALAR"}],"materials":[{"pbrMetallicRoughness":{"metallicFactor":0,"roughnessFactor":1,"baseColorTexture":{"index":0}},"alphaMode":"MASK","alphaCutoff":0.05,"doubleSided":true},{"pbrMetallicRoughness":{"metallicFactor":0,"roughnessFactor":1,"baseColorTexture":{"index":1}},"alphaMode":"MASK","alphaCutoff":0.05,"doubleSided":true}],"textures":[{"sampler":0,"source":0,"name":"Tuck End"},{"sampler":1,"source":1,"name":"Garage Door"}],"samplers":[{"magFilter":9728,"minFilter":9728,"wrapS":33071,"wrapT":33071},{"magFilter":9728,"minFilter":9728,"wrapS":33071,"wrapT":33071}],"images":[{"mimeType":"image/png","uri":"data:image/png;base64,"},{"mimeType":"image/png","uri":"data:image/png;base64,"}],"meshes":[{"primitives":[{"mode":4,"attributes":{"POSITION":0,"NORMAL":1,"TEXCOORD_0":2},"indices":3,"material":0}]},{"primitives":[{"mode":4,"attributes":{"POSITION":4,"NORMAL":5,"TEXCOORD_0":6},"indices":7,"material":0}]},{"primitives":[{"mode":4,"attributes":{"POSITION":8,"NORMAL":9,"TEXCOORD_0":10},"indices":11,"material":0}]},{"primitives":[{"mode":4,"attributes":{"POSITION":12,"NORMAL":13,"TEXCOORD_0":14},"indices":15,"material":0}]},{"primitives":[{"mode":4,"attributes":{"POSITION":16,"NORMAL":17,"TEXCOORD_0":18},"indices":19,"material":0}]},{"primitives":[{"mode":4,"attributes":{"POSITION":20,"NORMAL":21,"TEXCOORD_0":22},"indices":23,"material":0}]},{"primitives":[{"mode":4,"attributes":{"POSITION":24,"NORMAL":25,"TEXCOORD_0":26},"indices":27,"material":0}]},{"primitives":[{"mode":4,"attributes":{"POSITION":28,"NORMAL":29,"TEXCOORD_0":30},"indices":31,"material":0}]},{"primitives":[{"mode":4,"attributes":{"POSITION":32,"NORMAL":33,"TEXCOORD_0":34},"indices":35,"material":0}]},{"primitives":[{"mode":4,"attributes":{"POSITION":36,"NORMAL":37,"TEXCOORD_0":38},"indices":39,"material":0}]},{"primitives":[{"mode":4,"attributes":{"POSITION":40,"NORMAL":41,"TEXCOORD_0":42},"indices":43,"material":1}]},{"primitives":[{"mode":4,"attributes":{"POSITION":44,"NORMAL":45,"TEXCOORD_0":46},"indices":47,"material":1}]},{"primitives":[{"mode":4,"attributes":{"POSITION":48,"NORMAL":49,"TEXCOORD_0":50},"indices":51,"material":1}]},{"primitives":[{"mode":4,"attributes":{"POSITION":52,"NORMAL":53,"TEXCOORD_0":54},"indices":55,"material":1}]},{"primitives":[{"mode":4,"attributes":{"POSITION":56,"NORMAL":57,"TEXCOORD_0":58},"indices":59,"material":1}]}]}