# ProBuilder 5.2.4
# https://unity3d.com/unity/features/worldbuilding/probuilder
# 3/11/2026 6:15:14 PM

mtllib ./Ring.mtl
o Ring

g Pipe
v 0.08346321 -1.127338 0.9654287
v -0.7385861 -1.127338 0.6311103
v 0.08346321 1.127338 0.9654287
v -0.7385861 1.127338 0.6311103
v -0.5955781 -1.252603 0.5740024
v 0.02089746 -1.252603 0.8246812
v -0.5955781 1.252604 0.5740024
v 0.02089746 1.252604 0.8246812
v 0.9946072 -1.127338 -0.01301999
v 0.6236436 -1.127338 0.7416786
v 0.9946072 1.127338 -0.01301999
v 0.6236436 1.127338 0.7416786
v 0.5683603 -1.252603 0.5979146
v 0.8523514 -1.122398 0.04590423
v 0.5683603 1.252604 0.5979146
v 0.8523515 1.252604 0.04590424
v -1.192488E-08 -1.127338 -1
v 0.7125 -1.127338 -0.6940868
v -1.192488E-08 1.127338 -1
v 0.7125 1.127338 -0.6940868
v 0.5702443 -1.122398 -0.6351625
v -1.291308E-08 -1.252604 -0.8333372
v 0.5702444 1.252604 -0.6351626
v -1.291308E-08 1.252604 -0.8333372
v -0.7071066 -1.127338 -0.7071069
v -0.7071066 1.127338 -0.7071069
v -0.5892584 -1.252604 -0.5892584
v -0.5892584 1.252604 -0.5892584
v -0.9685215 -1.127338 0.07599705
v -0.9685215 1.127338 0.07599705
v -0.8270184 -1.252603 0.01525652
v -0.8270184 1.252604 0.01525652
v 0.7499638 -1.127338 -0.6036422
v 0.7499638 1.127338 -0.6036422
v 0.6096668 -1.122398 -0.5468403
v 0.6096669 1.252604 -0.5468403
v 0.8177739 -1.122398 -0.04442501
v 0.8177739 1.252604 -0.04442501
v 0.9571441 -1.127338 -0.1034648
v 0.9571441 1.127338 -0.1034648
v 0.1140949 -1.252603 0.7860775
v 0.1140949 1.252604 0.7860775
v 0.1754208 -1.127338 0.9273385
v 0.1754208 1.127338 0.9273385
v 0.5316854 -1.127338 0.7797689
v 0.5316854 1.127338 0.7797689
v 0.4751625 -1.252603 0.6365184
v 0.4751625 1.252604 0.6365184
v -0.9496516 1.127338 0.1215535
v -0.9496516 -1.127338 0.1215535
v -0.808025 1.252604 0.06111118
v -0.808025 -1.252603 0.06111118
v -0.6145719 1.252604 0.5281479
v -0.6145719 -1.252603 0.5281479
v -0.7574564 1.127338 0.5855539
v -0.7574564 -1.127338 0.5855539

vt 0.4410162 -1.127338
vt -0.4464148 -1.127338
vt 0.4410162 1.127338
vt -0.4464148 1.127338
vt 0.335494 -1.252603
vt -0.3299998 -1.252603
vt 0.335494 1.252604
vt -0.3299998 1.252604
vt 0.4504342 -1.127338
vt -0.3905081 -1.127338
vt 0.4504342 1.127338
vt -0.3905081 1.127338
vt 0.2716681 -1.252603
vt -0.3491107 -1.122398
vt 0.2716681 1.252604
vt -0.3491108 1.252604
vt 0.3945251 -1.127338
vt -0.380871 -1.127338
vt 0.3945251 1.127338
vt -0.380871 1.127338
vt 0.3301407 -1.122398
vt -0.2735577 -1.252604
vt 0.3301408 1.252604
vt -0.2735577 1.252604
vt 0.3826833 -1.127338
vt -0.3826834 -1.127338
vt 0.3826833 1.127338
vt -0.3826834 1.127338
vt 0.3189043 -1.252604
vt -0.3189044 -1.252604
vt 0.3189043 1.252604
vt -0.3189044 1.252604
vt 0.3787614 -1.127338
vt -0.4468229 -1.127338
vt 0.3787614 1.127338
vt -0.4468229 1.127338
vt 0.3326916 -1.252604
vt -0.3168991 -1.252603
vt 0.3326916 1.252604
vt -0.3168991 1.252604
vt -0.08691974 0.2876242
vt 0.09688634 -0.2844215
vt -0.2765002 0.2287744
vt -0.09149117 -0.3470148
vt -0.4464148 -0.2982104
vt 0.4410162 -0.2982105
vt -0.335457 -0.4628081
vt 0.3300367 -0.4628292
vt 0.4410162 0.2980023
vt -0.4464148 0.2980023
vt 0.3300368 0.4626212
vt -0.335457 0.4626
vt -0.2603476 -0.1330834
vt 0.2554157 0.1423202
vt -0.1703275 -0.3100359
vt 0.3523891 -0.03091936
vt -0.3527963 0.2949619
vt -0.08977292 -0.5037888
vt -0.4803285 0.1428063
vt -0.1871526 -0.414113
vt 0.4504342 0.3164014
vt -0.390508 0.3164014
vt 0.3348 0.4777362
vt -0.2858749 0.4848945
vt 0.1077725 -0.3525217
vt -0.1177387 0.3493196
vt 0.2967515 -0.2918001
vt 0.07124036 0.4100412
vt 0.732311 -0.7393366
vt 0.01992226 -1.045509
vt 0.5899902 -0.6803624
vt 0.02213595 -0.8841377
vt 0.3462175 -0.1891821
vt -0.3318501 0.1869341
vt 0.3846879 0.01572758
vt -0.1579988 0.278798
vt 0.3351067 -0.1848715
vt -0.3400374 0.1756373
vt 0.3723425 0.0202662
vt -0.1902803 0.3206917
vt 0.3400376 0.1756371
vt -0.3351066 -0.1848716
vt 0.1902805 0.3206915
vt -0.3723423 0.02026603
vt 0.1495935 -0.4229523
vt -0.05484465 0.3769192
vt 0.3198244 -0.3025804
vt 0.1338853 0.319443
vt 0.3787613 0.2255036
vt -0.446823 0.2255038
vt 0.2763403 0.3955446
vt -0.3723541 0.4186122
vt 0.9216845 -1.127338
vt 0.9216845 1.127338
vt 0.770325 -1.122398
vt 0.7703251 1.252604
vt -0.7703251 -1.122398
vt -0.7703251 1.252604
vt -0.9216847 -1.127338
vt -0.9216847 1.127338
vt 0.347584 1.252604
vt 0.3475839 -1.122398
vt 0.2508628 1.252604
vt 0.2508628 -1.122398
vt 0.8855962 0.03332833
vt 1.027936 -0.02559977
vt 0.8510343 -0.05700686
vt 0.9904899 -0.1160515
vt -0.3685873 -1.127338
vt -0.3685873 1.127338
vt -0.2706907 -1.127338
vt -0.2706907 1.127338
vt -0.08779033 0.2561113
vt 0.09888207 0.3173636
vt 0.368587 1.127338
vt 0.368587 -1.127338
vt 0.2706903 1.127338
vt 0.2706903 -1.127338
vt 0.7455882 -0.7076023
vt 0.6032486 -0.6486735
vt 0.7830356 -0.6171508
vt 0.6426538 -0.5603436
vt -0.347582 -1.122398
vt -0.347582 1.252604
vt -0.250861 -1.122398
vt -0.250861 1.252604
vt 0.2894669 -0.2676118
vt 0.1005702 -0.3285887
vt 0.2578255 -0.1762128
vt 0.07050089 -0.2354394
vt -0.7664949 -1.252603
vt -0.7664949 1.252604
vt -0.9204934 -1.127338
vt -0.9204934 1.127338
vt 0.9204939 -1.127338
vt 0.9204939 1.127338
vt 0.7664953 -1.252603
vt 0.7664953 1.252604
vt -0.9211478 1.127338
vt -0.9211478 -1.127338
vt -0.7671627 1.252604
vt -0.7671627 -1.252603
vt 0.7671627 1.252604
vt 0.7671627 -1.252603
vt 0.9211478 1.127338
vt 0.9211478 -1.127338
vt -0.300421 -1.127338
vt -0.300421 1.127338
vt -0.2511111 -1.127338
vt -0.2511111 1.127338
vt 0.08180126 -0.2374744
vt -0.1066751 -0.2997604
vt 0.3023876 1.252604
vt 0.3023876 -1.252603
vt 0.2527549 1.252604
vt 0.2527549 -1.252603
vt 0.09149224 -0.3470108
vt -0.09688521 -0.2844175
vt 0.1066752 -0.2997575
vt -0.08180099 -0.2374715
vt -0.3023879 -1.252603
vt -0.3023879 1.252604
vt -0.2527552 -1.252603
vt -0.2527552 1.252604
vt -0.2764991 0.2287705
vt -0.2613158 0.1815173
vt -0.07183401 0.2406744
vt 0.3004208 1.127338
vt 0.3004208 -1.127338
vt 0.2511109 1.127338
vt 0.2511109 -1.127338
vt 0.08691788 0.2876202
vt 0.2764982 0.2287704
vt 0.07183331 0.2406742
vt 0.2613149 0.1815172
vt 0.2923432 1.127338
vt 0.2923432 -1.127338
vt 0.1928084 1.127338
vt 0.1928084 -1.127338
vt 0.2603478 -0.1330827
vt 0.1703277 -0.3100351
vt 0.1725462 -0.08619909
vt 0.08134256 -0.2625195
vt -0.2962842 -1.252603
vt -0.2962842 1.252604
vt -0.1954076 -1.252603
vt -0.1954076 1.252604
vt -0.08134205 -0.2625202
vt -0.1725459 -0.0861996
vt 0.2962852 1.252604
vt 0.2962852 -1.252603
vt 0.195409 1.252604
vt 0.195409 -1.252603
vt -0.3523889 -0.03091874
vt -0.2554155 0.1423208
vt -0.2634041 -0.07843419
vt -0.1676145 0.09543744
vt -0.2923438 -1.127338
vt -0.2923438 1.127338
vt -0.1928095 -1.127338
vt -0.1928095 1.127338
vt 0.167617 0.09543849
vt 0.263407 -0.07843321

vn -0.3767261 0 0.9263247
vn 0.3766808 0 -0.9263431
vn 0.897444 0 0.4411285
vn -0.8892223 0 -0.4574754
vn 0.006425926 0 -0.9999794
vn 0.3945251 0 -0.9188852
vn -0.3282677 4.842122E-08 0.9445847
vn 0.02911096 1.2952E-08 0.9995762
vn -0.7315918 0 -0.681743
vn 0.7134335 0 0.7007229
vn -0.948545 0 -0.3166422
vn 0.9306089 0 0.3660151
vn -0.5830396 0.7757198 0.2415029
vn -0.2867039 -0.6487043 0.7049707
vn -0.2866672 0.6488184 0.7048806
vn -0.2866756 0.6486849 0.705
vn 0.2415027 0.7757204 0.5830389
vn 0.6662891 -0.6699239 0.3275069
vn 0.2540672 -0.8048445 0.01223716
vn -0.1581548 -0.939765 -0.3030326
vn 0.6968045 0.6302007 0.3425064
vn 0.6760178 0.6531237 0.3398006
vn 0.6552311 0.6760468 0.3370948
vn 0.5830396 0.7757197 -0.241503
vn -0.01765701 -0.998998 0.0411252
vn 0.1733804 -0.8717052 -0.2591917
vn 0.3644179 -0.7444124 -0.5595086
vn 0.2497877 0.7740415 -0.5817781
vn 0.2519926 0.7033929 -0.6566138
vn 0.2541976 0.6327443 -0.7314494
vn -0.2415029 -0.7757198 -0.5830396
vn -0.2415028 0.7757199 -0.5830395
vn -0.6101579 -0.7656507 -0.2036821
vn -0.6554713 -0.7118134 -0.2396527
vn -0.7007847 -0.6579762 -0.2756234
vn -0.6987729 0.676243 -0.2332634
vn -0.6443779 0.7247982 -0.2326539
vn -0.589983 0.7733533 -0.2320444
vn 0.3752786 0 0.9269121
vn -0.390063 0 -0.9207882
vn -0.9339142 4.575479E-08 0.3574973
vn -0.0299584 -0.9994854 0.01146787
vn -0.03004847 -0.9994766 0.01197642
vn -0.03013854 -0.9994678 0.01248498
vn 0.923881 0 -0.38268
vn 0.5830407 0.7757199 -0.2414998
vn 0.5893494 0.7729576 -0.2347572
vn 0.5956581 0.7701953 -0.2280147
vn -0.02962603 -0.9994857 0.01227032
vn -0.02971645 -0.9994764 0.0127873
vn -0.02980686 -0.9994671 0.01330427
vn -0.9131649 7.898138E-08 0.4075904
vn 0.5764058 0.7756062 -0.2572773
vn 0.5827292 0.7729921 -0.2506373
vn 0.5890526 0.7703781 -0.2439973
vn 0.9172881 0 -0.3982241
vn -0.930207 0 0.3670353
vn 0.3925211 0 0.919743
vn -0.3728023 0 -0.9279107
vn -0.9238812 0 0.3826794
vn -0.5830407 -0.7757198 0.2415003
vn 0.3826837 0 0.9238794
vn 0.2415027 -0.7757207 0.5830386
vn -0.3826838 0 -0.9238794

usemtl Walls
f 3/3/1 4/4/1 2/2/1 1/1/1
f 7/7/2 8/8/2 6/6/2 5/5/2
f 11/11/3 12/12/3 10/10/3 9/9/3
f 15/15/4 16/16/4 14/14/4 13/13/4
f 19/19/5 20/20/6 18/18/6 17/17/5
f 23/23/7 24/24/8 22/22/8 21/21/7
f 26/27/9 19/28/5 17/26/5 25/25/9
f 24/31/8 28/32/10 27/30/10 22/29/8
f 30/35/11 26/36/9 25/34/9 29/33/11
f 28/39/10 32/40/12 31/38/12 27/37/10
f 7/43/13 32/44/13 30/42/13 4/41/13
f 8/51/15 7/52/16 4/50/15 3/49/15
f 15/55/17 8/56/17 3/54/17 12/53/17
f 16/63/22 15/64/23 12/62/22 11/61/21
f 23/67/24 16/68/24 11/66/24 20/65/24
f 24/75/29 23/76/30 20/74/29 19/73/28
f 28/83/32 24/84/32 19/82/32 26/81/32
f 32/91/37 28/92/38 26/90/37 30/89/36
f 36/96/39 35/95/39 33/93/39 34/94/39
f 40/100/40 39/99/40 37/97/40 38/98/40
f 38/103/41 37/104/41 14/102/41 16/101/41
f 39/111/45 40/112/45 11/110/45 9/109/45
f 40/113/47 38/114/48 16/68/47 11/66/46
f 34/117/45 33/118/45 18/116/45 20/115/45
f 35/125/52 36/126/52 23/124/52 21/123/52
f 36/129/54 34/130/55 20/128/54 23/127/53
f 44/134/56 43/133/56 41/131/56 42/132/56
f 48/138/57 47/137/57 45/135/57 46/136/57
f 52/142/58 51/141/58 49/139/58 50/140/58
f 56/146/59 55/145/59 53/143/59 54/144/59
f 50/149/60 49/150/60 30/148/60 29/147/60
f 49/151/13 51/152/13 32/44/13 30/42/13
f 51/155/45 52/156/45 31/154/45 32/153/45
f 52/159/61 50/160/61 29/158/61 31/157/61
f 54/163/45 53/164/45 7/162/45 5/161/45
f 53/166/13 55/167/13 4/41/13 7/165/13
f 55/170/60 56/171/60 2/169/60 4/168/60
f 56/174/61 54/175/61 5/173/61 2/172/61
f 46/178/62 45/179/62 10/177/62 12/176/62
f 45/182/63 47/183/63 13/181/63 10/180/63
f 47/186/64 48/187/64 15/185/64 13/184/64
f 48/188/17 46/189/17 12/53/17 15/55/17
f 42/192/64 41/193/64 6/191/64 8/190/64
f 41/196/63 43/197/63 1/195/63 6/194/63
f 43/200/62 44/201/62 3/199/62 1/198/62
f 44/202/17 42/203/17 8/56/17 3/54/17

usemtl WallInside
f 5/47/14 6/48/14 1/46/14 2/45/14
f 13/59/19 14/60/20 9/58/19 10/57/18
f 21/71/26 22/72/27 17/70/26 18/69/25
f 22/79/31 27/80/31 25/78/31 17/77/31
f 27/87/34 31/88/35 29/86/34 25/85/33
f 37/107/43 39/108/44 9/106/43 14/105/42
f 33/121/50 35/122/51 21/120/50 18/119/49

